<svg viewBox="0 0 20 20" fill="none" xmlns="http://www.w3.org/2000/svg">
<path d="M11.3269 10.0004L15.0379 6.28947C15.214 6.11366 15.313 5.87509 15.3133 5.62623C15.3135 5.37738 15.2148 5.13864 15.039 4.96251C14.8632 4.78639 14.6246 4.68733 14.3758 4.68711C14.1269 4.68689 13.8882 4.78553 13.7121 4.96134L10.0011 8.67228L6.2902 4.96134C6.11408 4.78522 5.87521 4.68628 5.62614 4.68628C5.37707 4.68628 5.1382 4.78522 4.96208 4.96134C4.78596 5.13746 4.68701 5.37633 4.68701 5.62541C4.68701 5.87448 4.78596 6.11335 4.96208 6.28947L8.67301 10.0004L4.96208 13.7113C4.78596 13.8875 4.68701 14.1263 4.68701 14.3754C4.68701 14.6245 4.78596 14.8633 4.96208 15.0395C5.1382 15.2156 5.37707 15.3145 5.62614 15.3145C5.87521 15.3145 6.11408 15.2156 6.2902 15.0395L10.0011 11.3285L13.7121 15.0395C13.8882 15.2156 14.1271 15.3145 14.3761 15.3145C14.6252 15.3145 14.8641 15.2156 15.0402 15.0395C15.2163 14.8633 15.3153 14.6245 15.3153 14.3754C15.3153 14.1263 15.2163 13.8875 15.0402 13.7113L11.3269 10.0004Z" fill="#1F1F1F"/>
</svg>
