<svg width="16" height="16" viewBox="0 0 16 16" fill="none" xmlns="http://www.w3.org/2000/svg">
  <path
    d="M8.6665 3.49992C9.39984 3.49992 9.99984 2.89992 9.99984 2.16659C9.99984 1.43325 9.39984 0.833252 8.6665 0.833252C7.93317 0.833252 7.33317 1.43325 7.33317 2.16659C7.33317 2.89992 7.93317 3.49992 8.6665 3.49992ZM6.19984 5.76659L4.33317 15.1666H5.73317L6.93317 9.83325L8.33317 11.1666V15.1666H9.6665V10.1666L8.2665 8.83325L8.6665 6.83325C9.53317 7.83325 10.8665 8.49992 12.3332 8.49992V7.16659C11.0665 7.16659 9.99984 6.49992 9.4665 5.56659L8.79984 4.49992C8.4265 3.90659 7.67984 3.66659 7.03317 3.93992L3.6665 5.36659V8.49992H4.99984V6.23325L6.19984 5.76659Z"
    fill="#5C5F5F" />
</svg>