<svg viewBox="0 0 16 16" fill="none" xmlns="http://www.w3.org/2000/svg">
<path d="M12.6133 3.34008C12.48 2.94675 12.1067 2.66675 11.6667 2.66675H4.33333C3.89333 2.66675 3.52667 2.94675 3.38667 3.34008L2 7.33341V12.6667C2 13.0334 2.3 13.3334 2.66667 13.3334H3.33333C3.7 13.3334 4 13.0334 4 12.6667V12.0001H12V12.6667C12 13.0334 12.3 13.3334 12.6667 13.3334H13.3333C13.7 13.3334 14 13.0334 14 12.6667V7.33341L12.6133 3.34008ZM4.56667 4.00008H11.4267L12.12 6.00008H3.87333L4.56667 4.00008ZM12.6667 10.6667H3.33333V7.56008L3.41333 7.33341H12.5933L12.6667 7.56008V10.6667Z" fill="#5C5F5F"/>
<path d="M5 10.0001C5.55228 10.0001 6 9.55237 6 9.00008C6 8.4478 5.55228 8.00008 5 8.00008C4.44772 8.00008 4 8.4478 4 9.00008C4 9.55237 4.44772 10.0001 5 10.0001Z" fill="#5C5F5F"/>
<path d="M11 10.0001C11.5523 10.0001 12 9.55237 12 9.00008C12 8.4478 11.5523 8.00008 11 8.00008C10.4477 8.00008 10 8.4478 10 9.00008C10 9.55237 10.4477 10.0001 11 10.0001Z" fill="#5C5F5F"/>
</svg>
